<?xml version="1.0" encoding="utf-8"?>
<!-- Generator: Adobe Illustrator 21.1.0, SVG Export Plug-In . SVG Version: 6.00 Build 0)  -->
<svg version="1.1" id="Layer_1" xmlns="http://www.w3.org/2000/svg" xmlns:xlink="http://www.w3.org/1999/xlink" x="0px" y="0px"
	 width="336px" height="274px" viewBox="0 0 336 274" style="enable-background:new 0 0 336 274;" xml:space="preserve">
<style type="text/css">
	.st0{fill:#E5223F;}
	.st1{fill:url(#SVGID_1_);}
	.st2{fill:url(#SVGID_2_);}
	.st3{fill:url(#SVGID_3_);}
	.st4{fill:url(#SVGID_4_);}
	.st5{fill:url(#SVGID_5_);}
	.st6{fill:url(#SVGID_6_);}
	.st7{enable-background:new    ;}
	.st8{fill:#4F0B42;}
</style>
<g id="Background">
</g>
<g>
	<path class="st0" d="M-206.3,115.6"/>
	
		<linearGradient id="SVGID_1_" gradientUnits="userSpaceOnUse" x1="-195.582" y1="122.8645" x2="-190.2813" y2="115.6845" gradientTransform="matrix(1 0 0 -1 0 236.09)">
		<stop  offset="0" style="stop-color:#00D47E"/>
		<stop  offset="0.1418" style="stop-color:#02D484;stop-opacity:0.9957"/>
		<stop  offset="0.3372" style="stop-color:#08D696;stop-opacity:0.9899"/>
		<stop  offset="0.5638" style="stop-color:#11D8B3;stop-opacity:0.9831"/>
		<stop  offset="0.8119" style="stop-color:#1EDBDB;stop-opacity:0.9756"/>
		<stop  offset="1" style="stop-color:#2ADEFF;stop-opacity:0.97"/>
	</linearGradient>
	<path class="st1" d="M-190,121.2L-190,121.2c-2.2,0-3.9-1.7-3.9-3.9V115l0,0c2.2,0,3.9,1.7,3.9,3.9V121.2z"/>
	
		<linearGradient id="SVGID_2_" gradientUnits="userSpaceOnUse" x1="-196.9064" y1="115.8079" x2="-188.5829" y2="126.6794" gradientTransform="matrix(1 0 0 -1 0 236.09)">
		<stop  offset="0" style="stop-color:#00BC7E"/>
		<stop  offset="0.2178" style="stop-color:#00BC7F;stop-opacity:0.9998"/>
		<stop  offset="0.3933" style="stop-color:#01BD82;stop-opacity:0.9931"/>
		<stop  offset="0.5287" style="stop-color:#04BF8C;stop-opacity:0.9879"/>
		<stop  offset="0.6508" style="stop-color:#0AC49C;stop-opacity:0.9833"/>
		<stop  offset="0.7649" style="stop-color:#11CAB3;stop-opacity:0.979"/>
		<stop  offset="0.8736" style="stop-color:#1BD2D1;stop-opacity:0.9748"/>
		<stop  offset="0.9767" style="stop-color:#27DCF6;stop-opacity:0.9709"/>
		<stop  offset="1" style="stop-color:#2ADEFF;stop-opacity:0.97"/>
	</linearGradient>
	<path class="st2" d="M-187.7,110.4L-187.7,110.4c0,2.2-1.7,3.9-3.9,3.9h-2.3l0,0c0-2.2,1.7-3.9,3.9-3.9
		C-190,110.4-187.7,110.4-187.7,110.4z"/>
	
		<linearGradient id="SVGID_3_" gradientUnits="userSpaceOnUse" x1="-193.823" y1="119.6364" x2="-200.8793" y2="133.066" gradientTransform="matrix(1 0 0 -1 0 236.09)">
		<stop  offset="5.000000e-03" style="stop-color:#00BC7E"/>
		<stop  offset="0.1431" style="stop-color:#02BE85;stop-opacity:0.9958"/>
		<stop  offset="0.3511" style="stop-color:#09C39A;stop-opacity:0.9896"/>
		<stop  offset="0.603" style="stop-color:#14CCBC;stop-opacity:0.982"/>
		<stop  offset="0.887" style="stop-color:#23D9EA;stop-opacity:0.9734"/>
		<stop  offset="1" style="stop-color:#2ADEFF;stop-opacity:0.97"/>
	</linearGradient>
	<path class="st3" d="M-198.5,108.1L-198.5,108.1c2.2,0,3.9,1.7,3.9,3.9v2.3l0,0c-2.2,0-3.9-1.7-3.9-3.9
		C-198.5,110.4-198.5,108.1-198.5,108.1z"/>
	
		<linearGradient id="SVGID_4_" gradientUnits="userSpaceOnUse" x1="-202.7078" y1="126.9041" x2="-195.6292" y2="108.2331" gradientTransform="matrix(1 0 0 -1 0 236.09)">
		<stop  offset="0" style="stop-color:#90145A"/>
		<stop  offset="0.1501" style="stop-color:#842C6E;stop-opacity:0.9955"/>
		<stop  offset="0.4681" style="stop-color:#646AA1;stop-opacity:0.986"/>
		<stop  offset="0.925" style="stop-color:#33CDF1;stop-opacity:0.9722"/>
		<stop  offset="1" style="stop-color:#2ADEFF;stop-opacity:0.97"/>
	</linearGradient>
	<path class="st4" d="M-202.4,121.2c-1.5,0.8-0.5,5.9,3.1,5.8c2.6,0,4.7-2.1,4.7-4.7V115l0,0c-2.2,0-3.9,1.7-3.9,3.9v2.3
		c0,1.1-0.9,2-2,2l0,0C-201.5,123.2-202.4,122.3-202.4,121.2"/>
	
		<linearGradient id="SVGID_5_" gradientUnits="userSpaceOnUse" x1="-202.2456" y1="126.0089" x2="-196.7958" y2="115.5206" gradientTransform="matrix(1 0 0 -1 0 236.09)">
		<stop  offset="0" style="stop-color:#90145A"/>
		<stop  offset="0.1501" style="stop-color:#842C6E;stop-opacity:0.9955"/>
		<stop  offset="0.4681" style="stop-color:#646AA1;stop-opacity:0.986"/>
		<stop  offset="0.925" style="stop-color:#33CDF1;stop-opacity:0.9722"/>
		<stop  offset="1" style="stop-color:#2ADEFF;stop-opacity:0.97"/>
	</linearGradient>
	<path class="st5" d="M-200.4,123.2c1.2,0,1.9-1,1.9-1.9v-2.4c0-2.2,1.8-3.8,3.9-3.8l0,0v2.3C-194.6,123-200.4,123.2-200.4,123.2z"
		/>
	
		<linearGradient id="SVGID_6_" gradientUnits="userSpaceOnUse" x1="-207.6184" y1="126.4914" x2="-197.2034" y2="99.9435" gradientTransform="matrix(1 0 0 -1 0 236.09)">
		<stop  offset="0" style="stop-color:#90145A"/>
		<stop  offset="0.1501" style="stop-color:#842C6E;stop-opacity:0.9955"/>
		<stop  offset="0.4681" style="stop-color:#646AA1;stop-opacity:0.986"/>
		<stop  offset="0.925" style="stop-color:#33CDF1;stop-opacity:0.9722"/>
		<stop  offset="1" style="stop-color:#2ADEFF;stop-opacity:0.97"/>
	</linearGradient>
	<path class="st6" d="M-199.4,127c-3.2-0.5-3-5.8-3-5.8v-8c0-2.2-1.7-3.9-3.9-3.9l0,0v13.1l0,0c0,2.6,2.2,4.7,4.7,4.7
		C-201.3,127-200.2,127-199.4,127c0,0,0.2,0,0.3,0C-199.1,127-199.2,127-199.4,127z"/>
</g>
<g class="st7">
	<path class="st8" d="M-184.1,119.2h-2.8v-4.5h0.9v3.7h2V119.2z"/>
	<path class="st8" d="M-182.7,117.6c0-0.5,0.1-1,0.4-1.2c0.3-0.3,0.6-0.4,1.1-0.4c0.3,0,0.5,0,0.7,0.1c0.2,0.1,0.3,0.2,0.5,0.3
		c0.1,0.1,0.2,0.3,0.3,0.5c0.1,0.2,0.1,0.4,0.1,0.7c0,0.5-0.1,1-0.4,1.2c-0.3,0.3-0.6,0.4-1.1,0.4c-0.3,0-0.5,0-0.7-0.1
		c-0.2-0.1-0.3-0.2-0.5-0.3s-0.2-0.3-0.3-0.5C-182.7,118-182.7,117.8-182.7,117.6z M-181.8,117.6c0,0.1,0,0.3,0,0.4
		c0,0.1,0.1,0.2,0.1,0.3s0.1,0.2,0.2,0.2c0.1,0,0.2,0.1,0.3,0.1c0.2,0,0.4-0.1,0.5-0.2s0.2-0.4,0.2-0.7c0-0.3,0-0.5-0.1-0.7
		s-0.3-0.3-0.5-0.3c-0.2,0-0.4,0.1-0.5,0.2C-181.8,117-181.8,117.2-181.8,117.6z"/>
	<path class="st8" d="M-176,116.7c-0.1,0-0.3-0.1-0.4-0.1c-0.1,0-0.3,0-0.4,0.1c-0.1,0.1-0.2,0.2-0.2,0.3v2.1h-0.8V116h0.6l0.1,0.4
		h0c0.1-0.2,0.2-0.3,0.3-0.4c0.1-0.1,0.3-0.1,0.4-0.1c0.1,0,0.2,0,0.4,0.1L-176,116.7z"/>
	<path class="st8" d="M-171.6,118.9c-0.1,0.1-0.3,0.2-0.5,0.3s-0.5,0.1-0.7,0.1c-0.5,0-0.9-0.2-1.1-0.5c-0.2-0.3-0.4-0.7-0.4-1.2
		c0-0.6,0.1-1,0.4-1.3c0.3-0.3,0.6-0.4,1.1-0.4c0.2,0,0.3,0,0.5,0.1c0.2,0,0.3,0.1,0.4,0.2c0.1,0.1,0.2,0.2,0.3,0.4
		c0.1,0.2,0.1,0.4,0.1,0.6c0,0.1,0,0.2,0,0.3c0,0.1,0,0.2,0,0.3h-1.9c0,0.3,0.1,0.5,0.2,0.6c0.1,0.1,0.3,0.2,0.6,0.2
		c0.2,0,0.3,0,0.5-0.1c0.1-0.1,0.2-0.1,0.3-0.2L-171.6,118.9z M-172.8,116.5c-0.2,0-0.4,0.1-0.5,0.2c-0.1,0.1-0.2,0.3-0.2,0.5h1.2
		c0-0.2,0-0.4-0.1-0.5S-172.6,116.5-172.8,116.5z"/>
	<path class="st8" d="M-167.8,119.2v-1.7c0-0.3,0-0.5-0.1-0.6c-0.1-0.1-0.2-0.2-0.3-0.2c-0.1,0-0.3,0-0.4,0.1
		c-0.1,0.1-0.2,0.2-0.2,0.3v2.1h-0.8V116h0.6l0.1,0.4h0c0.1-0.1,0.2-0.3,0.4-0.4c0.2-0.1,0.3-0.2,0.6-0.2c0.2,0,0.4,0,0.5,0.1
		s0.2,0.2,0.3,0.4c0.1-0.2,0.2-0.3,0.4-0.4c0.2-0.1,0.3-0.1,0.6-0.1c0.2,0,0.3,0,0.5,0.1c0.1,0,0.2,0.1,0.3,0.2
		c0.1,0.1,0.1,0.2,0.2,0.4c0,0.2,0.1,0.4,0.1,0.7v1.9h-0.8v-1.8c0-0.3,0-0.4-0.1-0.6c-0.1-0.1-0.2-0.2-0.4-0.2c-0.1,0-0.3,0-0.4,0.1
		c-0.1,0.1-0.2,0.2-0.2,0.3v2.1H-167.8z"/>
	<path class="st8" d="M-160.2,115.1c0-0.1,0-0.2,0.1-0.3c0.1-0.1,0.2-0.1,0.4-0.1c0.2,0,0.3,0,0.4,0.1c0.1,0.1,0.2,0.2,0.2,0.3
		s-0.1,0.2-0.2,0.3c-0.1,0.1-0.2,0.1-0.4,0.1c-0.2,0-0.3,0-0.4-0.1C-160.1,115.3-160.2,115.2-160.2,115.1z M-160.1,116h0.8v3.2h-0.8
		V116z"/>
	<path class="st8" d="M-157.1,116h0.6l0.1,0.4h0c0.1-0.2,0.2-0.3,0.4-0.4s0.3-0.1,0.6-0.1c0.4,0,0.7,0.1,0.9,0.4s0.3,0.7,0.3,1.2
		c0,0.3,0,0.5-0.1,0.7c-0.1,0.2-0.2,0.4-0.3,0.6c-0.1,0.2-0.3,0.3-0.5,0.4c-0.2,0.1-0.4,0.1-0.6,0.1c-0.1,0-0.2,0-0.3,0
		c-0.1,0-0.2,0-0.3-0.1v1.3h-0.8V116z M-155.6,116.6c-0.2,0-0.3,0-0.4,0.1c-0.1,0.1-0.2,0.2-0.2,0.4v1.3c0.1,0,0.1,0.1,0.2,0.1
		s0.2,0,0.3,0c0.2,0,0.4-0.1,0.5-0.3c0.1-0.2,0.2-0.4,0.2-0.8c0-0.3,0-0.5-0.1-0.7S-155.4,116.6-155.6,116.6z"/>
	<path class="st8" d="M-150.9,118.3c0-0.1,0-0.2-0.1-0.2c-0.1-0.1-0.2-0.1-0.3-0.1s-0.2-0.1-0.4-0.1c-0.1,0-0.2-0.1-0.4-0.2
		c-0.1-0.1-0.2-0.2-0.3-0.3c-0.1-0.1-0.1-0.3-0.1-0.5c0-0.3,0.1-0.6,0.3-0.7s0.5-0.2,0.8-0.2c0.2,0,0.5,0,0.7,0.1
		c0.2,0.1,0.3,0.1,0.5,0.2l-0.2,0.6c-0.1,0-0.2-0.1-0.4-0.1c-0.1,0-0.3-0.1-0.5-0.1c-0.2,0-0.4,0.1-0.4,0.3c0,0.1,0,0.1,0.1,0.2
		s0.2,0.1,0.3,0.1s0.2,0.1,0.4,0.1s0.2,0.1,0.4,0.2c0.1,0.1,0.2,0.2,0.3,0.3c0.1,0.1,0.1,0.3,0.1,0.5c0,0.3-0.1,0.6-0.3,0.8
		c-0.2,0.2-0.5,0.3-0.9,0.3c-0.2,0-0.4,0-0.6-0.1c-0.2-0.1-0.4-0.1-0.5-0.2l0.2-0.6c0.1,0.1,0.2,0.1,0.4,0.2s0.3,0.1,0.5,0.1
		c0.1,0,0.2,0,0.3-0.1C-151,118.5-150.9,118.4-150.9,118.3z"/>
	<path class="st8" d="M-147.4,116v1.8c0,0.3,0,0.4,0.1,0.6c0.1,0.1,0.2,0.2,0.4,0.2c0.2,0,0.3,0,0.4-0.1c0.1-0.1,0.2-0.2,0.2-0.3
		V116h0.8v2.2c0,0.2,0,0.3,0,0.5c0,0.2,0,0.3,0.1,0.5h-0.6l-0.1-0.5h0c-0.1,0.2-0.2,0.3-0.4,0.4s-0.4,0.2-0.6,0.2
		c-0.2,0-0.3,0-0.4-0.1c-0.1,0-0.2-0.1-0.3-0.2c-0.1-0.1-0.1-0.2-0.2-0.4c0-0.2-0.1-0.4-0.1-0.6v-2H-147.4z"/>
	<path class="st8" d="M-141.6,119.2v-1.7c0-0.3,0-0.5-0.1-0.6c-0.1-0.1-0.2-0.2-0.3-0.2c-0.1,0-0.3,0-0.4,0.1
		c-0.1,0.1-0.2,0.2-0.2,0.3v2.1h-0.8V116h0.6l0.1,0.4h0c0.1-0.1,0.2-0.3,0.4-0.4c0.2-0.1,0.3-0.2,0.6-0.2c0.2,0,0.4,0,0.5,0.1
		s0.2,0.2,0.3,0.4c0.1-0.2,0.2-0.3,0.4-0.4c0.2-0.1,0.3-0.1,0.6-0.1c0.2,0,0.3,0,0.5,0.1c0.1,0,0.2,0.1,0.3,0.2
		c0.1,0.1,0.1,0.2,0.2,0.4c0,0.2,0.1,0.4,0.1,0.7v1.9h-0.8v-1.8c0-0.3,0-0.4-0.1-0.6c-0.1-0.1-0.2-0.2-0.4-0.2c-0.1,0-0.3,0-0.4,0.1
		c-0.1,0.1-0.2,0.2-0.2,0.3v2.1H-141.6z"/>
</g>
<g class="st7">
	<path class="st8" d="M-186.1,124.6l-0.9-1.8h0.7l0.5,1.1l0.1,0.3h0l0.1-0.3l0.5-1h0.6l-0.9,1.8v1h-0.5V124.6z"/>
	<path class="st8" d="M-183.9,124.2c0-0.5,0.1-0.8,0.3-1.1c0.2-0.3,0.5-0.4,0.9-0.4c0.2,0,0.4,0,0.5,0.1c0.1,0.1,0.3,0.2,0.4,0.3
		s0.2,0.3,0.2,0.5s0.1,0.4,0.1,0.6c0,0.5-0.1,0.8-0.3,1.1c-0.2,0.3-0.5,0.4-0.9,0.4c-0.2,0-0.4,0-0.5-0.1s-0.3-0.2-0.4-0.3
		c-0.1-0.1-0.2-0.3-0.2-0.5C-183.9,124.7-183.9,124.5-183.9,124.2z M-183.3,124.2c0,0.1,0,0.3,0,0.4c0,0.1,0.1,0.2,0.1,0.3
		c0,0.1,0.1,0.2,0.2,0.2s0.2,0.1,0.3,0.1c0.2,0,0.3-0.1,0.5-0.2c0.1-0.2,0.2-0.4,0.2-0.7c0-0.1,0-0.3,0-0.4s-0.1-0.2-0.1-0.3
		s-0.1-0.2-0.2-0.2c-0.1,0-0.2-0.1-0.3-0.1c-0.2,0-0.3,0.1-0.5,0.2C-183.3,123.7-183.3,123.9-183.3,124.2z"/>
	<path class="st8" d="M-178.8,122.9h0.5v1.8c0,0.2,0,0.3-0.1,0.5c0,0.1-0.1,0.2-0.2,0.3c-0.1,0.1-0.2,0.1-0.3,0.2
		c-0.1,0-0.3,0.1-0.4,0.1c-0.7,0-1.1-0.3-1.1-1v-1.9h0.5v1.8c0,0.1,0,0.2,0,0.3s0.1,0.1,0.1,0.2c0,0,0.1,0.1,0.2,0.1
		c0.1,0,0.1,0,0.2,0c0.2,0,0.3,0,0.4-0.1c0.1-0.1,0.1-0.2,0.1-0.5V122.9z"/>
	<path class="st8" d="M-177,122.9c0.1,0,0.1,0,0.2,0c0.1,0,0.1,0,0.2,0c0.1,0,0.1,0,0.2,0c0.1,0,0.1,0,0.2,0c0.1,0,0.3,0,0.4,0
		c0.1,0,0.2,0.1,0.3,0.1s0.2,0.1,0.2,0.2c0.1,0.1,0.1,0.2,0.1,0.4c0,0.2-0.1,0.4-0.2,0.6c-0.1,0.1-0.2,0.2-0.4,0.3l0.2,0.1l0.6,1.1
		h-0.6l-0.6-1.1l-0.3-0.1v1.1h-0.5V122.9z M-176.2,123.3c-0.1,0-0.1,0-0.2,0c-0.1,0-0.1,0-0.1,0v0.8h0.2c0.2,0,0.3,0,0.4-0.1
		c0.1-0.1,0.1-0.2,0.1-0.3c0-0.1,0-0.2-0.1-0.3C-175.9,123.3-176,123.3-176.2,123.3z"/>
	<path class="st8" d="M-170.8,124.9c0-0.1,0-0.2-0.1-0.2c-0.1-0.1-0.1-0.1-0.2-0.1c-0.1,0-0.2-0.1-0.3-0.1s-0.2-0.1-0.3-0.2
		s-0.2-0.2-0.2-0.3c-0.1-0.1-0.1-0.2-0.1-0.4c0-0.1,0-0.3,0.1-0.4c0-0.1,0.1-0.2,0.2-0.3s0.2-0.1,0.3-0.1c0.1,0,0.2,0,0.4,0
		c0.2,0,0.3,0,0.5,0c0.1,0,0.3,0.1,0.4,0.1l-0.2,0.5c-0.1,0-0.1-0.1-0.3-0.1s-0.2,0-0.4,0c-0.1,0-0.2,0-0.3,0.1
		c-0.1,0.1-0.1,0.1-0.1,0.2c0,0.1,0,0.1,0.1,0.2c0.1,0.1,0.1,0.1,0.2,0.1s0.2,0.1,0.3,0.1c0.1,0,0.2,0.1,0.3,0.2
		c0.1,0.1,0.2,0.2,0.2,0.3c0.1,0.1,0.1,0.2,0.1,0.4c0,0.1,0,0.3-0.1,0.4c0,0.1-0.1,0.2-0.2,0.3c-0.1,0.1-0.2,0.1-0.3,0.2
		c-0.1,0-0.3,0.1-0.4,0.1c-0.2,0-0.4,0-0.5-0.1c-0.2,0-0.3-0.1-0.3-0.1l0.2-0.5c0,0,0.1,0,0.1,0.1s0.1,0,0.2,0.1c0.1,0,0.1,0,0.2,0
		c0.1,0,0.1,0,0.2,0c0.2,0,0.3,0,0.4-0.1C-170.8,125.1-170.8,125-170.8,124.9z"/>
	<path class="st8" d="M-167.3,125.7h-1.8v-2.8h0.5v2.3h1.2V125.7z"/>
	<path class="st8" d="M-166.7,124.2c0-0.5,0.1-0.8,0.3-1.1c0.2-0.3,0.5-0.4,0.9-0.4c0.2,0,0.4,0,0.5,0.1s0.3,0.2,0.4,0.3
		s0.2,0.3,0.2,0.5s0.1,0.4,0.1,0.6c0,0.5-0.1,0.8-0.3,1.1c-0.2,0.3-0.5,0.4-0.9,0.4c-0.2,0-0.4,0-0.5-0.1c-0.1-0.1-0.3-0.2-0.4-0.3
		c-0.1-0.1-0.2-0.3-0.2-0.5C-166.7,124.7-166.7,124.5-166.7,124.2z M-166.1,124.2c0,0.1,0,0.3,0,0.4c0,0.1,0.1,0.2,0.1,0.3
		c0,0.1,0.1,0.2,0.2,0.2c0.1,0,0.2,0.1,0.3,0.1c0.2,0,0.3-0.1,0.5-0.2c0.1-0.2,0.2-0.4,0.2-0.7c0-0.1,0-0.3,0-0.4s-0.1-0.2-0.1-0.3
		c0-0.1-0.1-0.2-0.2-0.2s-0.2-0.1-0.3-0.1c-0.2,0-0.3,0.1-0.5,0.2S-166.1,123.9-166.1,124.2z"/>
	<path class="st8" d="M-162.1,124.2h1v1.2c-0.1,0.1-0.2,0.2-0.4,0.2c-0.2,0-0.3,0.1-0.5,0.1c-0.2,0-0.3,0-0.5-0.1
		c-0.2-0.1-0.3-0.1-0.4-0.3c-0.1-0.1-0.2-0.3-0.3-0.5c-0.1-0.2-0.1-0.4-0.1-0.7c0-0.3,0-0.5,0.1-0.7c0.1-0.2,0.2-0.3,0.3-0.5
		c0.1-0.1,0.3-0.2,0.4-0.3c0.2-0.1,0.3-0.1,0.5-0.1s0.3,0,0.4,0c0.1,0,0.2,0,0.3,0.1l-0.1,0.5c-0.1,0-0.1,0-0.2-0.1s-0.2,0-0.3,0
		c-0.1,0-0.2,0-0.3,0.1c-0.1,0-0.2,0.1-0.3,0.2c-0.1,0.1-0.1,0.2-0.2,0.3c0,0.1-0.1,0.3-0.1,0.4c0,0.2,0,0.3,0.1,0.4
		s0.1,0.2,0.2,0.3c0.1,0.1,0.1,0.1,0.2,0.2c0.1,0,0.2,0.1,0.3,0.1c0.1,0,0.1,0,0.2,0s0.1,0,0.2-0.1v-0.5l-0.6-0.1V124.2z"/>
	<path class="st8" d="M-158.5,125h-0.9l-0.2,0.6h-0.5l1-2.8h0.4l1,2.8h-0.6L-158.5,125z M-159.2,124.6h0.6l-0.2-0.6l-0.1-0.4h0
		l-0.1,0.4L-159.2,124.6z"/>
	<path class="st8" d="M-156,124.2l-0.2-0.4h0l0.1,0.4v1.5h-0.5v-2.8h0.4l1.1,1.5l0.2,0.4h0l-0.1-0.4v-1.5h0.5v2.8h-0.4L-156,124.2z"
		/>
</g>
<g id="Designed_by_Freepik">
</g>
<image style="overflow:visible;" width="336" height="274" xlink:href="62080D37.jpg" >
</image>
</svg>
